<?xml version="1.0" standalone="no"?>
<!DOCTYPE svg PUBLIC "-//W3C//DTD SVG 20010904//EN"
 "http://www.w3.org/TR/2001/REC-SVG-20010904/DTD/svg10.dtd">
<svg version="1.0" xmlns="http://www.w3.org/2000/svg"
 width="514.000000pt" height="514.000000pt" viewBox="0 0 514.000000 514.000000"
 preserveAspectRatio="xMidYMid meet">
<metadata>
Created by potrace 1.14, written by Peter Selinger 2001-2017
</metadata>
<g transform="translate(0.000000,514.000000) scale(0.100000,-0.100000)"
fill="#000000" stroke="none">
<path d="M5 2565 l0 -1515 262 0 263 0 0 635 0 635 163 0 164 0 189 -246 c104
-135 194 -251 199 -257 6 -7 24 -30 40 -52 17 -22 32 -42 35 -45 4 -3 65 -81
136 -175 135 -176 375 -487 380 -494 3 -3 154 -3 1021 -2 l303 1 2 1072 3
1071 57 -84 c31 -46 96 -142 145 -214 127 -186 296 -435 367 -540 34 -49 63
-92 66 -95 3 -3 10 -13 15 -22 6 -9 28 -43 51 -75 22 -32 141 -206 264 -388
123 -181 226 -332 229 -335 4 -3 11 -13 16 -22 6 -9 64 -97 130 -196 l120
-178 258 -1 257 -1 0 1503 0 1503 -260 0 -260 0 0 -1026 0 -1027 -47 70 c-25
39 -50 72 -55 73 -4 2 -8 8 -8 14 0 5 -28 49 -62 98 -35 48 -91 130 -126 182
-35 51 -106 156 -159 233 -52 77 -141 208 -197 290 -195 287 -279 411 -351
515 -39 58 -107 157 -150 220 -204 300 -248 362 -269 376 -19 12 -68 14 -292
12 l-269 -3 0 -1250 0 -1250 -267 0 c-160 0 -271 5 -276 10 -5 6 -31 39 -58
75 -27 36 -54 72 -61 80 -21 26 -234 303 -274 355 -21 27 -67 88 -104 135
l-66 85 316 3 315 2 0 880 0 880 -1078 0 -1077 0 0 -1515z m1655 635 l0 -380
-565 0 -565 0 0 380 0 380 565 0 565 0 0 -380z"/>
</g>
</svg>
